<?xml version="1.0" standalone="no"?>
<!DOCTYPE svg PUBLIC "-//W3C//DTD SVG 1.1//EN" "http://www.w3.org/Graphics/SVG/1.1/DTD/svg11.dtd">
<svg xmlns="http://www.w3.org/2000/svg" style="background-color:#FFF" 
width="200" height="200">
<path stroke="black" fill="none" stroke-width="1" d="M94, 50L93.8, 52.02L93.21, 53.89L92.29, 55.59L91.07, 57.07L89.59, 58.29L87.89, 59.21L86.02, 59.8L84, 60L81.98, 59.8L80.11, 59.21L78.41, 58.29L76.93, 57.07L75.71, 55.59L74.79, 53.89L74.2, 52.02L74, 50L74.2, 47.98L74.79, 46.11L75.71, 44.41L76.93, 42.93L78.41, 41.71L80.11, 40.79L81.98, 40.2L84, 40L86.02, 40.2L87.89, 40.79L89.59, 41.71L91.07, 42.93L92.29, 44.41L93.21, 46.11L93.8, 47.98L94, 50"/>
<path stroke="black" fill="none" stroke-width="1" d="M26, 50L25.8, 52.02L25.21, 53.89L24.29, 55.59L23.07, 57.07L21.59, 58.29L19.89, 59.21L18.02, 59.8L16, 60L13.98, 59.8L12.11, 59.21L10.41, 58.29L8.93, 57.07L7.71, 55.59L6.79, 53.89L6.2, 52.02L6, 50L6.2, 47.98L6.79, 46.11L7.71, 44.41L8.93, 42.93L10.41, 41.71L12.11, 40.79L13.98, 40.2L16, 40L18.02, 40.2L19.89, 40.79L21.59, 41.71L23.07, 42.93L24.29, 44.41L25.21, 46.11L25.8, 47.98L26, 50"/>
<path stroke="black" fill="none" stroke-width="1" d="M60, 50L59.8, 52.02L59.21, 53.89L58.29, 55.59L57.07, 57.07L55.59, 58.29L53.89, 59.21L52.02, 59.8L50, 60L47.98, 59.8L46.11, 59.21L44.41, 58.29L42.93, 57.07L41.71, 55.59L40.79, 53.89L40.2, 52.02L40, 50L40.2, 47.98L40.79, 46.11L41.71, 44.41L42.93, 42.93L44.41, 41.71L46.11, 40.79L47.98, 40.2L50, 40L52.02, 40.2L53.89, 40.79L55.59, 41.71L57.07, 42.93L58.29, 44.41L59.21, 46.11L59.8, 47.98L60, 50"/>
<path stroke="black" fill="none" stroke-width="1" d="M94, 50L93.8, 52.02L93.21, 53.89L92.29, 55.59L91.07, 57.07L89.59, 58.29L87.89, 59.21L86.02, 59.8L84, 60L81.98, 59.8L80.11, 59.21L78.41, 58.29L76.93, 57.07L75.71, 55.59L74.79, 53.89L74.2, 52.02L74, 50L74.2, 47.98L74.79, 46.11L75.71, 44.41L76.93, 42.93L78.41, 41.71L80.11, 40.79L81.98, 40.2L84, 40L86.02, 40.2L87.89, 40.79L89.59, 41.71L91.07, 42.93L92.29, 44.41L93.21, 46.11L93.8, 47.98L94, 50"/>
<path stroke="black" fill="none" stroke-width="1" d="M26, 50L25.8, 52.02L25.21, 53.89L24.29, 55.59L23.07, 57.07L21.59, 58.29L19.89, 59.21L18.02, 59.8L16, 60L13.98, 59.8L12.11, 59.21L10.41, 58.29L8.93, 57.07L7.71, 55.59L6.79, 53.89L6.2, 52.02L6, 50L6.2, 47.98L6.79, 46.11L7.71, 44.41L8.93, 42.93L10.41, 41.71L12.11, 40.79L13.98, 40.2L16, 40L18.02, 40.2L19.89, 40.79L21.59, 41.71L23.07, 42.93L24.29, 44.41L25.21, 46.11L25.8, 47.98L26, 50"/>
</svg>